<svg width="12" height="15" viewBox="0 0 12 15" fill="none" xmlns="http://www.w3.org/2000/svg">
<path d="M1.162 4.35075C0.94644 2.92949 1.95014 1.64968 3.48342 1.18008C3.75566 1.09676 4.04944 1.12044 4.30482 1.24629C4.5602 1.37214 4.75794 1.59068 4.85772 1.85733L5.34938 3.16995C5.42843 3.3811 5.44261 3.61104 5.39009 3.8303C5.33757 4.04955 5.22075 4.24812 5.05461 4.40053L3.59205 5.74201C3.51992 5.80828 3.46617 5.89209 3.43603 5.98529C3.40589 6.07848 3.40039 6.1779 3.42006 6.27385L3.43307 6.33269L3.46928 6.48036C3.50153 6.60484 3.55019 6.78023 3.61865 6.98957C3.75444 7.40542 3.97113 7.96442 4.29363 8.52285C4.61613 9.08128 4.99181 9.54862 5.28375 9.87395C5.4358 10.0433 5.59473 10.2064 5.76015 10.3628L5.80541 10.4047C5.87856 10.4694 5.96725 10.5142 6.06284 10.5345C6.15842 10.5548 6.25764 10.5501 6.35083 10.5206L8.24395 9.92487C8.45904 9.85726 8.68942 9.85544 8.90556 9.91965C9.12169 9.98387 9.31371 10.1112 9.45699 10.2853L10.3526 11.3727C10.726 11.8253 10.6819 12.4907 10.2525 12.8907C9.07904 13.9844 7.46542 14.209 6.34291 13.306C4.967 12.1963 3.80706 10.8428 2.92103 9.31325C2.02769 7.78469 1.4309 6.10068 1.162 4.35075ZM4.60538 6.34797L5.81955 5.2345C6.15183 4.92968 6.38546 4.53254 6.49051 4.09403C6.59555 3.65552 6.5672 3.19563 6.4091 2.77333L5.91687 1.46071C5.71605 0.924419 5.31827 0.484899 4.80461 0.231746C4.29095 -0.0214057 3.70007 -0.069131 3.15244 0.0982992C1.24857 0.681059 -0.280183 2.38803 0.043446 4.52048C0.333693 6.41135 0.978077 8.23048 1.94279 9.88243C2.89844 11.5319 4.14948 12.9914 5.63341 14.1881C7.31662 15.5403 9.56505 15.0792 11.0242 13.7185C11.4417 13.3293 11.6951 12.7956 11.7326 12.2261C11.7701 11.6566 11.589 11.0942 11.2262 10.6536L10.3306 9.56616C10.044 9.21787 9.65982 8.96317 9.22744 8.83474C8.79506 8.7063 8.33417 8.71 7.90391 8.84535L6.33272 9.33985C6.26239 9.26751 6.19354 9.19376 6.12621 9.11862C5.8033 8.76138 5.51762 8.37219 5.27357 7.95706C5.03599 7.53808 4.84168 7.096 4.69364 6.63765C4.66225 6.5417 4.63282 6.44512 4.60538 6.34797Z" fill="#7888A9"/>
</svg>
