<svg width="30" height="30" viewBox="0 0 30 30" fill="none" xmlns="http://www.w3.org/2000/svg">
<rect width="30" height="30" rx="5" fill="#7888A9"/>
<path fill-rule="evenodd" clip-rule="evenodd" d="M11.6231 21.2414H9V13.372H11.6231V21.2414Z" fill="white"/>
<path fill-rule="evenodd" clip-rule="evenodd" d="M10.3038 11.6231H10.2889C9.50607 11.6231 9 11.04 9 10.3111C9 9.56687 9.52148 9 10.3191 9C11.1168 9 11.608 9.56687 11.6231 10.3111C11.6231 11.04 11.1168 11.6231 10.3038 11.6231Z" fill="white"/>
<path fill-rule="evenodd" clip-rule="evenodd" d="M21.2413 21.2412H18.6637V17.1278C18.6637 16.0946 18.2907 15.3895 17.3575 15.3895C16.6454 15.3895 16.2212 15.8648 16.0349 16.3239C15.9667 16.4884 15.95 16.7176 15.95 16.9474V21.2414H13.3719C13.3719 21.2414 13.4059 14.2742 13.3719 13.5527H15.95V14.6418C16.2921 14.1182 16.9049 13.372 18.2735 13.372C19.9697 13.372 21.2414 14.4711 21.2414 16.8328L21.2413 21.2412Z" fill="white"/>
</svg>
