<svg width="30" height="30" viewBox="0 0 30 30" fill="none" xmlns="http://www.w3.org/2000/svg">
<rect width="30" height="30" rx="5" fill="#7888A9"/>
<path fill-rule="evenodd" clip-rule="evenodd" d="M15.1342 12.8436L15.1615 13.306L14.7051 13.2493C13.0438 13.0323 11.5924 12.2963 10.3601 11.0602L9.75764 10.4469L9.60246 10.8998C9.27385 11.9094 9.48379 12.9757 10.1684 13.6928C10.5335 14.0891 10.4514 14.1457 9.82154 13.9099C9.60246 13.8344 9.41077 13.7777 9.39251 13.8061C9.32862 13.8721 9.54769 14.7308 9.72113 15.0705C9.95846 15.5423 10.4423 16.0046 10.9717 16.2783L11.419 16.4953L10.8895 16.5047C10.3784 16.5047 10.3601 16.5142 10.4149 16.7123C10.5974 17.3256 11.3186 17.9767 12.1218 18.2598L12.6878 18.4579L12.1949 18.7599C11.4646 19.1939 10.6066 19.4393 9.74851 19.4581C9.33774 19.4676 9 19.5053 9 19.5336C9 19.628 10.1136 20.1564 10.7617 20.364C12.7061 20.9773 15.0155 20.7131 16.7498 19.6657C17.9822 18.9203 19.2145 17.4389 19.7895 16.0046C20.0999 15.2403 20.4103 13.8438 20.4103 13.1739C20.4103 12.7398 20.4376 12.6832 20.9488 12.1642C21.2501 11.8623 21.533 11.532 21.5878 11.4377C21.6791 11.2584 21.6699 11.2584 21.2044 11.4188C20.4285 11.7019 20.319 11.6641 20.7024 11.2395C20.9853 10.9376 21.3231 10.3903 21.3231 10.2299C21.3231 10.2016 21.1862 10.2487 21.031 10.3337C20.8667 10.428 20.5015 10.5696 20.2277 10.6545L19.7348 10.8149L19.2875 10.5035C19.041 10.3337 18.6942 10.1449 18.5116 10.0883C18.0461 9.95622 17.3341 9.97509 16.9142 10.1261C15.7731 10.5507 15.052 11.6452 15.1342 12.8436Z" fill="white"/>
</svg>
